<?xml version="1.0" encoding="utf-8"?>
<!-- Generator: Adobe Illustrator 18.0.0, SVG Export Plug-In . SVG Version: 6.00 Build 0)  -->
<!DOCTYPE svg PUBLIC "-//W3C//DTD SVG 1.1//EN" "http://www.w3.org/Graphics/SVG/1.1/DTD/svg11.dtd">
<svg version="1.1" id="Layer_1" xmlns="http://www.w3.org/2000/svg" xmlns:xlink="http://www.w3.org/1999/xlink" x="0px" y="0px"
	 viewBox="26 26 48 48" enable-background="new 26 26 48 48" xml:space="preserve">
<path opacity="0.54" d="M72,52h-4c-1.1,0-2-0.9-2-2s0.9-2,2-2h4c1.1,0,2,0.9,2,2S73.1,52,72,52z M64.1,38.7c-0.8,0.8-2,0.8-2.8,0
	c-0.8-0.8-0.8-2,0-2.8l2.8-2.8c0.8-0.8,2-0.8,2.8,0c0.8,0.8,0.8,2,0,2.8L64.1,38.7z M50,62c-6.6,0-12-5.4-12-12c0-6.6,5.4-12,12-12
	c6.6,0,12,5.4,12,12C62,56.6,56.6,62,50,62z M50,42c-4.4,0-8,3.6-8,8c0,4.4,3.6,8,8,8s8-3.6,8-8C58,45.6,54.4,42,50,42z M50,34
	c-1.1,0-2-0.9-2-2v-4c0-1.1,0.9-2,2-2c1.1,0,2,0.9,2,2v4C52,33.1,51.1,34,50,34z M35.9,38.7L33,35.9c-0.8-0.8-0.8-2,0-2.8
	s2-0.8,2.8,0l2.8,2.8c0.8,0.8,0.8,2,0,2.8S36.6,39.5,35.9,38.7z M34,50c0,1.1-0.9,2-2,2h-4c-1.1,0-2-0.9-2-2s0.9-2,2-2h4
	C33.1,48,34,48.9,34,50z M35.9,61.3c0.8-0.8,2-0.8,2.8,0c0.8,0.8,0.8,2,0,2.8L35.9,67c-0.8,0.8-2,0.8-2.8,0c-0.8-0.8-0.8-2,0-2.8
	L35.9,61.3z M50,66c1.1,0,2,0.9,2,2v4c0,1.1-0.9,2-2,2c-1.1,0-2-0.9-2-2v-4C48,66.9,48.9,66,50,66z M64.1,61.3l2.8,2.8
	c0.8,0.8,0.8,2,0,2.8c-0.8,0.8-2,0.8-2.8,0l-2.8-2.8c-0.8-0.8-0.8-2,0-2.8C62.1,60.5,63.4,60.5,64.1,61.3z"/>
</svg>
