<?xml version="1.0" encoding="utf-8"?>
<!-- Generator: Adobe Illustrator 18.0.0, SVG Export Plug-In . SVG Version: 6.00 Build 0)  -->
<!DOCTYPE svg PUBLIC "-//W3C//DTD SVG 1.1//EN" "http://www.w3.org/Graphics/SVG/1.1/DTD/svg11.dtd">
<svg version="1.1" id="Layer_1" xmlns="http://www.w3.org/2000/svg" xmlns:xlink="http://www.w3.org/1999/xlink" x="0px" y="0px"
	 viewBox="27.9 33.6 44 32" enable-background="new 27.9 33.6 44 32" xml:space="preserve">
<path opacity="0.54" d="M43.9,65.6c-8.8,0-16-7.2-16-16s7.2-16,16-16c6,0,11.2,3.3,14,8.2c0.7-0.1,1.3-0.2,2-0.2c6.6,0,12,5.4,12,12
	c0,6.6-5.4,12-12,12C57.2,65.6,47.1,65.6,43.9,65.6z M59.9,61.6c4.4,0,8-3.6,8-8c0-4.4-3.6-8-8-8c-1.6,0-3.1,0.5-4.3,1.3
	c-1.2-5.3-6-9.3-11.7-9.3c-6.6,0-12,5.4-12,12c0,6.6,5.4,12,12,12C47.6,61.6,56.9,61.6,59.9,61.6z"/>
</svg>
