<?xml version="1.0" encoding="utf-8"?>
<!-- Generator: Adobe Illustrator 18.0.0, SVG Export Plug-In . SVG Version: 6.00 Build 0)  -->
<!DOCTYPE svg PUBLIC "-//W3C//DTD SVG 1.1//EN" "http://www.w3.org/Graphics/SVG/1.1/DTD/svg11.dtd">
<svg version="1.1" id="Layer_1" xmlns="http://www.w3.org/2000/svg" xmlns:xlink="http://www.w3.org/1999/xlink" x="0px" y="0px"
	 viewBox="36 36 28 28" enable-background="new 36 36 28 28" xml:space="preserve">
<g opacity="0.54">
	<g>
		<path d="M64,50c0-7.7-6.3-14-14-14c-7.7,0-14,6.3-14,14c0,7.7,6.3,14,14,14C57.7,64,64,57.7,64,50z M40,50c0-5.5,4.5-10,10-10
			c5.5,0,10,4.5,10,10c0,5.5-4.5,10-10,10C44.5,60,40,55.5,40,50z M50,46c-2.2,0-4,1.8-4,4s1.8,4,4,4s8-4,8-4S52.2,46,50,46z M50,51
			c-0.6,0-1-0.4-1-1c0-0.6,0.4-1,1-1c0.6,0,1,0.4,1,1C51,50.6,50.6,51,50,51z"/>
	</g>
</g>
</svg>
