<?xml version="1.0" encoding="utf-8"?>
<!-- Generator: Adobe Illustrator 18.0.0, SVG Export Plug-In . SVG Version: 6.00 Build 0)  -->
<!DOCTYPE svg PUBLIC "-//W3C//DTD SVG 1.1//EN" "http://www.w3.org/Graphics/SVG/1.1/DTD/svg11.dtd">
<svg version="1.1" id="Layer_1" xmlns="http://www.w3.org/2000/svg" xmlns:xlink="http://www.w3.org/1999/xlink" x="0px" y="0px"
	 viewBox="27.9 33.6 44 41.6" enable-background="new 27.9 33.6 44 41.6" xml:space="preserve">
<path opacity="0.54" fill="#231F20" d="M63.9,65c-0.1-1.4-0.3-2.7-0.8-4c2.8-1.2,4.8-4,4.8-7.3c0-4.4-3.6-8-8-8
	c-1.6,0-3.1,0.5-4.3,1.3c-1.2-5.3-6-9.3-11.7-9.3c-6.6,0-12,5.4-12,12c0,4.2,2.1,7.8,5.4,10c-0.6,1.2-1,2.6-1.2,4
	c-4.9-2.7-8.2-7.9-8.2-13.9c0-8.8,7.2-16,16-16c6,0,11.2,3.3,14,8.2c0.7-0.1,1.3-0.2,2-0.2c6.6,0,12,5.4,12,12
	C71.9,58.9,68.6,63.3,63.9,65z M49.9,55.3L49.9,55.3l3,0l-2.2-2.2c-0.8-0.8-0.8-2,0-2.8c0.8-0.8,2-0.8,2.8,0l5.7,5.7
	c0.8,0.8,0.8,2,0,2.8l-5.7,5.7c-0.8,0.8-2,0.8-2.8,0c-0.8-0.8-0.8-2,0-2.8l2.3-2.3h-3l0,0c-3.3,0-6,2.7-6,6c0,3.3,2.7,6,6,6
	c3.3,0,6-2.7,6-6c0-0.2,0-0.3,0-0.5l3.3-3.3c0.5,1.2,0.7,2.4,0.7,3.7c0,5.5-4.5,10-10,10c-5.5,0-10-4.5-10-10
	C39.9,59.7,44.4,55.3,49.9,55.3z"/>
</svg>
