<?xml version="1.0" encoding="utf-8"?>
<!-- Generator: Adobe Illustrator 18.0.0, SVG Export Plug-In . SVG Version: 6.00 Build 0)  -->
<!DOCTYPE svg PUBLIC "-//W3C//DTD SVG 1.1//EN" "http://www.w3.org/Graphics/SVG/1.1/DTD/svg11.dtd">
<svg version="1.1" id="Layer_1" xmlns="http://www.w3.org/2000/svg" xmlns:xlink="http://www.w3.org/1999/xlink" x="0px" y="0px"
	 viewBox="28 33.6 44 30" enable-background="new 28 33.6 44 30" xml:space="preserve">
<path opacity="0.54" d="M29.2,55.6c-0.3-0.6-0.5-1.3-0.6-2H72c0,0.7-0.1,1.3-0.2,2H29.2z M36.3,35.6c2.3-1.3,4.9-2,7.7-2
	c2.8,0,5.4,0.7,7.7,2H36.3z M28.1,47.6c0.1-0.7,0.2-1.3,0.4-2h40.4c0.6,0.6,1,1.3,1.5,2H28.1z M29.2,43.6c0.3-0.7,0.6-1.4,1-2h27.7
	c0,0.1,0.1,0.1,0.1,0.2c0.7-0.1,1.3-0.2,2-0.2c2.5,0,4.7,0.7,6.6,2H29.2z M31.5,39.6c0.6-0.7,1.2-1.4,1.9-2h21.1
	c0.7,0.6,1.3,1.3,1.9,2H31.5z M71.8,51.6H28.1c-0.1-0.7-0.1-1.3-0.1-2h43.3C71.5,50.3,71.7,51,71.8,51.6z M71.3,57.6
	c-0.2,0.7-0.6,1.4-0.9,2H31.5c-0.5-0.6-1-1.3-1.4-2H71.3z M33.4,61.6h35.5c-0.7,0.8-1.4,1.4-2.3,2H36.3
	C35.2,63.1,34.3,62.4,33.4,61.6z"/>
</svg>
