<?xml version="1.0" encoding="utf-8"?>
<!-- Generator: Adobe Illustrator 18.0.0, SVG Export Plug-In . SVG Version: 6.00 Build 0)  -->
<!DOCTYPE svg PUBLIC "-//W3C//DTD SVG 1.1//EN" "http://www.w3.org/Graphics/SVG/1.1/DTD/svg11.dtd">
<svg version="1.1" id="Layer_1" xmlns="http://www.w3.org/2000/svg" xmlns:xlink="http://www.w3.org/1999/xlink" x="0px" y="0px"
	 viewBox="28 33.6 47 46" enable-background="new 28 33.6 47 46" xml:space="preserve">
<path opacity="0.54" d="M73,71.6c-1.1,0-2-0.9-2-2c0-1.1,0.9-2,2-2s2,0.9,2,2C75,70.7,74.1,71.6,73,71.6z M64,64.9v-4.4
	c2.4-1.4,4-4,4-6.9c0-4.4-3.6-8-8-8c-1.6,0-3.1,0.5-4.3,1.3c-1.2-5.3-6-9.3-11.7-9.3c-6.6,0-12,5.4-12,12c0,3.5,1.6,6.7,4,8.9v4.9
	c-4.8-2.8-8-7.9-8-13.8c0-8.8,7.2-16,16-16c6,0,11.2,3.3,14,8.2c0.7-0.1,1.3-0.2,2-0.2c6.6,0,12,5.4,12,12
	C72,58.9,68.7,63.3,64,64.9z M31,72.6c1.1,0,2,0.9,2,2c0,1.1-0.9,2-2,2s-2-0.9-2-2C29,73.5,29.9,72.6,31,72.6z M41,55.6
	c0-1.1-0.1-2,1-2s1,0.9,1,2v24h-2l0,0l0,0c0-2.2-1.8-4-4-4v-2c1.5,0,2.9,0.6,4,1.6V55.6z M50,69.6c-1.1,0-1-0.9-1-2v-8
	c0-1.1-0.1-2,1-2s1,0.9,1,2v8C51,68.7,51.1,69.6,50,69.6z M50,73.6c1.1,0,2,0.9,2,2c0,1.1-0.9,2-2,2s-2-0.9-2-2
	C48,74.5,48.9,73.6,50,73.6z M58,53.6c1.1,0,1,0.9,1,2v18c1.8-2.4,4.7-4,8-4v2c-4.4,0-8,3.6-8,8h-2c0-0.3,0-0.5,0-0.8
	c-0.1-0.3,0-0.7,0-1.2v-22C57,54.5,56.9,53.6,58,53.6z"/>
</svg>
