<?xml version="1.0" encoding="utf-8"?>
<!-- Generator: Adobe Illustrator 18.0.0, SVG Export Plug-In . SVG Version: 6.00 Build 0)  -->
<!DOCTYPE svg PUBLIC "-//W3C//DTD SVG 1.1//EN" "http://www.w3.org/Graphics/SVG/1.1/DTD/svg11.dtd">
<svg version="1.1" id="Layer_1" xmlns="http://www.w3.org/2000/svg" xmlns:xlink="http://www.w3.org/1999/xlink" x="0px" y="0px"
	 viewBox="36 36 28 28" enable-background="new 36 36 28 28" xml:space="preserve">
<g opacity="0.54">
	<g>
		<path d="M59.9,40.1c-5.5-5.5-14.3-5.5-19.8,0c-5.5,5.5-5.5,14.3,0,19.8c5.5,5.5,14.3,5.5,19.8,0C65.4,54.4,65.4,45.6,59.9,40.1z
			 M42.9,57.1c-3.9-3.9-3.9-10.2,0-14.1c3.9-3.9,10.2-3.9,14.1,0c3.9,3.9,3.9,10.2,0,14.1C53.2,61,46.8,61,42.9,57.1z M47.2,47.2
			c-1.6,1.6-1.6,4.1,0,5.7c1.6,1.6,4.1,1.6,5.7,0c1.6-1.6,2.8-8.5,2.8-8.5S48.7,45.6,47.2,47.2z M50.7,50.7c-0.4,0.4-1,0.4-1.4,0
			c-0.4-0.4-0.4-1,0-1.4c0.4-0.4,1-0.4,1.4,0C51.1,49.7,51.1,50.3,50.7,50.7z"/>
	</g>
</g>
</svg>
