<?xml version="1.0" encoding="utf-8"?>
<!-- Generator: Adobe Illustrator 18.0.0, SVG Export Plug-In . SVG Version: 6.00 Build 0)  -->
<!DOCTYPE svg PUBLIC "-//W3C//DTD SVG 1.1//EN" "http://www.w3.org/Graphics/SVG/1.1/DTD/svg11.dtd">
<svg version="1.1" id="Layer_1" xmlns="http://www.w3.org/2000/svg" xmlns:xlink="http://www.w3.org/1999/xlink" x="0px" y="0px"
	 viewBox="36 36 28 28" enable-background="new 36 36 28 28" xml:space="preserve">
<g opacity="0.54">
	<g>
		<path d="M40.1,40.1c-5.5,5.5-5.5,14.3,0,19.8c5.5,5.5,14.3,5.5,19.8,0c5.5-5.5,5.5-14.3,0-19.8C54.4,34.6,45.6,34.6,40.1,40.1z
			 M57.1,57.1c-3.9,3.9-10.2,3.9-14.1,0c-3.9-3.9-3.9-10.2,0-14.1c3.9-3.9,10.2-3.9,14.1,0C61,46.8,61,53.2,57.1,57.1z M47.2,52.8
			c1.6,1.6,4.1,1.6,5.7,0c1.6-1.6,1.6-4.1,0-5.7c-1.6-1.6-8.5-2.8-8.5-2.8S45.6,51.3,47.2,52.8z M50.7,49.3c0.4,0.4,0.4,1,0,1.4
			c-0.4,0.4-1,0.4-1.4,0c-0.4-0.4-0.4-1,0-1.4C49.7,48.9,50.3,48.9,50.7,49.3z"/>
	</g>
</g>
</svg>
