<?xml version="1.0" encoding="utf-8"?>
<!-- Generator: Adobe Illustrator 18.0.0, SVG Export Plug-In . SVG Version: 6.00 Build 0)  -->
<!DOCTYPE svg PUBLIC "-//W3C//DTD SVG 1.1//EN" "http://www.w3.org/Graphics/SVG/1.1/DTD/svg11.dtd">
<svg version="1.1" id="Layer_1" xmlns="http://www.w3.org/2000/svg" xmlns:xlink="http://www.w3.org/1999/xlink" x="0px" y="0px"
	 viewBox="27.9 17.6 54 48" enable-background="new 27.9 17.6 54 48" xml:space="preserve">
<path opacity="0.54" d="M79.9,43.6h-4c-1.1,0-2-0.9-2-2c0-1.1,0.9-2,2-2h4c1.1,0,2,0.9,2,2C81.9,42.7,81,43.6,79.9,43.6z M72.1,30.3
	c-0.8,0.8-2,0.8-2.8,0c-0.8-0.8-0.8-2,0-2.8l2.8-2.8c0.8-0.8,2-0.8,2.8,0c0.8,0.8,0.8,2,0,2.8L72.1,30.3z M69.1,45.9L69.1,45.9
	c1.7,2.1,2.8,4.8,2.8,7.7c0,6.6-5.4,12-12,12c-2.8,0-12.8,0-16,0c-8.8,0-16-7.2-16-16s7.2-16,16-16c1.6,0,3.1,0.2,4.5,0.7
	c2.2-2.8,5.6-4.7,9.5-4.7c6.6,0,12,5.4,12,12C69.9,43.2,69.6,44.6,69.1,45.9z M31.9,49.6c0,6.6,5.4,12,12,12c3.6,0,13,0,16,0
	c4.4,0,8-3.6,8-8c0-4.4-3.6-8-8-8c-1.6,0-3.1,0.5-4.3,1.3c-1.2-5.3-6-9.3-11.7-9.3C37.3,37.6,31.9,43,31.9,49.6z M57.9,33.6
	c-2.2,0-4.2,0.9-5.7,2.3c2.3,1.4,4.3,3.5,5.6,5.9c0.7-0.1,1.3-0.2,2-0.2c2.1,0,4.1,0.6,5.9,1.5l0,0c0.1-0.5,0.2-1,0.2-1.5
	C65.9,37.2,62.4,33.6,57.9,33.6z M57.9,25.6c-1.1,0-2-0.9-2-2v-4c0-1.1,0.9-2,2-2c1.1,0,2,0.9,2,2v4C59.9,24.7,59,25.6,57.9,25.6z
	 M43.8,30.3L41,27.5c-0.8-0.8-0.8-2,0-2.8c0.8-0.8,2-0.8,2.8,0l2.8,2.8c0.8,0.8,0.8,2,0,2.8C45.9,31.1,44.6,31.1,43.8,30.3z"/>
</svg>
