<?xml version="1.0" encoding="utf-8"?>
<!-- Generator: Adobe Illustrator 18.0.0, SVG Export Plug-In . SVG Version: 6.00 Build 0)  -->
<!DOCTYPE svg PUBLIC "-//W3C//DTD SVG 1.1//EN" "http://www.w3.org/Graphics/SVG/1.1/DTD/svg11.dtd">
<svg version="1.1" id="Layer_1" xmlns="http://www.w3.org/2000/svg" xmlns:xlink="http://www.w3.org/1999/xlink" x="0px" y="0px"
	 viewBox="28 33.6 44 38" enable-background="new 28 33.6 44 38" xml:space="preserve">
<path opacity="0.54" d="M62,65.5v-4.1c3.4-0.9,6-4,6-7.7c0-4.4-3.6-8-8-8c-1.6,0-3.1,0.5-4.3,1.3c-1.2-5.3-6-9.3-11.7-9.3
	c-6.6,0-12,5.4-12,12c0,4.4,2.4,8.3,6,10.4v4.4c-5.9-2.4-10-8.1-10-14.8c0-8.8,7.2-16,16-16c6,0,11.2,3.3,14,8.2
	c0.7-0.1,1.3-0.2,2-0.2c6.6,0,12,5.4,12,12C72,59.6,67.7,64.5,62,65.5z M43.1,59.6c0.6-1,1.8-1.3,2.7-0.7l2.2,1.3v-2.5
	c0-1.1,0.9-2,2-2s2,0.9,2,2v2.5l2.2-1.3c1-0.6,2.2-0.2,2.7,0.7c0.6,1,0.2,2.2-0.7,2.7L54,63.6l2.2,1.3c1,0.6,1.3,1.8,0.7,2.7
	c-0.6,1-1.8,1.3-2.7,0.7L52,67.1v2.5c0,1.1-0.9,2-2,2s-2-0.9-2-2v-2.5l-2.2,1.3c-1,0.6-2.2,0.2-2.7-0.7c-0.6-1-0.2-2.2,0.7-2.7
	l2.2-1.3l-2.2-1.3C42.8,61.8,42.5,60.6,43.1,59.6z M50,65.6c1.1,0,2-0.9,2-2c0-1.1-0.9-2-2-2s-2,0.9-2,2C48,64.7,48.9,65.6,50,65.6z
	"/>
</svg>
