<?xml version="1.0" encoding="utf-8"?>
<!-- Generator: Adobe Illustrator 18.0.0, SVG Export Plug-In . SVG Version: 6.00 Build 0)  -->
<!DOCTYPE svg PUBLIC "-//W3C//DTD SVG 1.1//EN" "http://www.w3.org/Graphics/SVG/1.1/DTD/svg11.dtd">
<svg version="1.1" id="Layer_1" xmlns="http://www.w3.org/2000/svg" xmlns:xlink="http://www.w3.org/1999/xlink" x="0px" y="0px"
	 viewBox="36 36 28 28" enable-background="new 36 36 28 28" xml:space="preserve">
<g opacity="0.54">
	<g>
		<path d="M40.1,59.9c5.5,5.5,14.3,5.5,19.8,0c5.5-5.5,5.5-14.3,0-19.8c-5.5-5.5-14.3-5.5-19.8,0C34.6,45.6,34.6,54.4,40.1,59.9z
			 M57.1,42.9c3.9,3.9,3.9,10.2,0,14.1c-3.9,3.9-10.2,3.9-14.1,0c-3.9-3.9-3.9-10.2,0-14.1C46.8,39,53.2,39,57.1,42.9z M52.8,52.8
			c1.6-1.6,1.6-4.1,0-5.7c-1.6-1.6-4.1-1.6-5.7,0c-1.6,1.6-2.8,8.5-2.8,8.5S51.3,54.4,52.8,52.8z M49.3,49.3c0.4-0.4,1-0.4,1.4,0
			c0.4,0.4,0.4,1,0,1.4c-0.4,0.4-1,0.4-1.4,0C48.9,50.3,48.9,49.7,49.3,49.3z"/>
	</g>
</g>
</svg>
