<?xml version="1.0" encoding="utf-8"?>
<!-- Generator: Adobe Illustrator 18.0.0, SVG Export Plug-In . SVG Version: 6.00 Build 0)  -->
<!DOCTYPE svg PUBLIC "-//W3C//DTD SVG 1.1//EN" "http://www.w3.org/Graphics/SVG/1.1/DTD/svg11.dtd">
<svg version="1.1" id="Layer_1" xmlns="http://www.w3.org/2000/svg" xmlns:xlink="http://www.w3.org/1999/xlink" x="0px" y="0px"
	 viewBox="26 32 48 36" enable-background="new 26 32 48 36" xml:space="preserve">
<g opacity="0.54">
	<g>
		<path d="M38.7,41.9L35.9,39c-0.8-0.8-2-0.8-2.8,0c-0.8,0.8-0.8,2,0,2.8l2.8,2.8c0.8,0.8,2,0.8,2.8,0
			C39.5,43.9,39.5,42.6,38.7,41.9z M72,54h-4c-1.1,0-2,0.9-2,2s0.9,2,2,2h4c1.1,0,2-0.9,2-2S73.1,54,72,54z M32,54h-4
			c-1.1,0-2,0.9-2,2s0.9,2,2,2h4c1.1,0,2-0.9,2-2S33.1,54,32,54z M60,64H40c-1.1,0-2,0.9-2,2s0.9,2,2,2h20c1.1,0,2-0.9,2-2
			S61.1,64,60,64z M67,39c-0.8-0.8-2-0.8-2.8,0l-2.8,2.8c-0.8,0.8-0.8,2,0,2.8c0.8,0.8,2,0.8,2.8,0l2.8-2.8
			C67.7,41.1,67.7,39.8,67,39z M50,40c1.1,0,2-0.9,2-2v-4c0-1.1-0.9-2-2-2c-1.1,0-2,0.9-2,2v4C48,39.1,48.9,40,50,40z M50,44
			c-6.6,0-12,5.4-12,12c0,1.4,0.3,2.7,0.7,4h4.4c-0.7-1.2-1.1-2.5-1.1-4c0-4.4,3.6-8,8-8c4.4,0,8,3.6,8,8c0,1.5-0.4,2.8-1.1,4h4.4
			c0.4-1.3,0.7-2.6,0.7-4C62,49.4,56.6,44,50,44z M50,60.2c0.6,0,1-0.4,1-1v-3.8l2.5,2.5c0.4,0.4,1,0.4,1.4,0c0.4-0.4,0.4-1,0-1.4
			l-4.2-4.2c-0.4-0.4-1-0.4-1.4,0l-4.2,4.2c-0.4,0.4-0.4,1,0,1.4s1,0.4,1.4,0l2.5-2.5v3.8C49,59.8,49.4,60.2,50,60.2z"/>
	</g>
</g>
</svg>
