<?xml version="1.0" encoding="utf-8"?>
<!-- Generator: Adobe Illustrator 18.0.0, SVG Export Plug-In . SVG Version: 6.00 Build 0)  -->
<!DOCTYPE svg PUBLIC "-//W3C//DTD SVG 1.1//EN" "http://www.w3.org/Graphics/SVG/1.1/DTD/svg11.dtd">
<svg version="1.1" id="Layer_1" xmlns="http://www.w3.org/2000/svg" xmlns:xlink="http://www.w3.org/1999/xlink" x="0px" y="0px"
	 viewBox="26 32 48 36" enable-background="new 26 32 48 36" xml:space="preserve">
<path opacity="0.54" d="M72,58h-4c-1.1,0-2-0.9-2-2s0.9-2,2-2h4c1.1,0,2,0.9,2,2S73.1,58,72,58z M64.1,44.7c-0.8,0.8-2,0.8-2.8,0
	c-0.8-0.8-0.8-2,0-2.8l2.8-2.8c0.8-0.8,2-0.8,2.8,0c0.8,0.8,0.8,2,0,2.8L64.1,44.7z M61.3,60h-4.4c0.7-1.2,1.1-2.5,1.1-4
	c0-4.4-3.6-8-8-8c-4.4,0-8,3.6-8,8c0,1.5,0.4,2.8,1.1,4h-4.4c-0.4-1.3-0.7-2.6-0.7-4c0-6.6,5.4-12,12-12c6.6,0,12,5.4,12,12
	C62,57.4,61.7,58.7,61.3,60z M50,40c-1.1,0-2-0.9-2-2v-4c0-1.1,0.9-2,2-2c1.1,0,2,0.9,2,2v4C52,39.1,51.1,40,50,40z M35.9,44.7
	L33,41.9c-0.8-0.8-0.8-2,0-2.8c0.8-0.8,2-0.8,2.8,0l2.8,2.8c0.8,0.8,0.8,2,0,2.8S36.6,45.5,35.9,44.7z M34,56c0,1.1-0.9,2-2,2h-4
	c-1.1,0-2-0.9-2-2s0.9-2,2-2h4C33.1,54,34,54.9,34,56z M50,52c0.6,0,1,0.4,1,1v3.8l2.5-2.5c0.4-0.4,1-0.4,1.4,0s0.4,1,0,1.4
	l-4.2,4.2c-0.4,0.4-1,0.4-1.4,0l-4.2-4.2c-0.4-0.4-0.4-1,0-1.4s1-0.4,1.4,0l2.5,2.5V53C49,52.4,49.4,52,50,52z M40,64h20
	c1.1,0,2,0.9,2,2s-0.9,2-2,2H40c-1.1,0-2-0.9-2-2S38.9,64,40,64z"/>
</svg>
