<?xml version="1.0" encoding="utf-8"?>
<!-- Generator: Adobe Illustrator 18.0.0, SVG Export Plug-In . SVG Version: 6.00 Build 0)  -->
<!DOCTYPE svg PUBLIC "-//W3C//DTD SVG 1.1//EN" "http://www.w3.org/Graphics/SVG/1.1/DTD/svg11.dtd">
<svg version="1.1" id="Layer_1" xmlns="http://www.w3.org/2000/svg" xmlns:xlink="http://www.w3.org/1999/xlink" x="0px" y="0px"
	 viewBox="28 33.6 44 44" enable-background="new 28 33.6 44 44" xml:space="preserve">
<path opacity="0.54" d="M60,65.6c-0.3,0-0.6,0-1.1,0l3.6-4.4c3.2-1.1,5.5-4.1,5.5-7.6c0-4.4-3.6-8-8-8c-1.6,0-3.1,0.5-4.3,1.3
	c-1.2-5.3-6-9.3-11.7-9.3c-6.6,0-12,5.4-12,12c0,5.4,3.6,10,8.6,11.5l-1.3,3.8c-6.5-2-11.3-8.1-11.3-15.3c0-8.8,7.2-16,16-16
	c6,0,11.2,3.3,14,8.2c0.7-0.1,1.3-0.2,2-0.2c6.6,0,12,5.4,12,12S66.6,65.6,60,65.6z M48,51.6h10l-6,10h7l-13,16l3.6-12H43L48,51.6z"
	/>
</svg>
