<?xml version="1.0" encoding="utf-8"?>
<!-- Generator: Adobe Illustrator 18.0.0, SVG Export Plug-In . SVG Version: 6.00 Build 0)  -->
<!DOCTYPE svg PUBLIC "-//W3C//DTD SVG 1.1//EN" "http://www.w3.org/Graphics/SVG/1.1/DTD/svg11.dtd">
<svg version="1.1" id="Layer_1" xmlns="http://www.w3.org/2000/svg" xmlns:xlink="http://www.w3.org/1999/xlink" x="0px" y="0px"
	 viewBox="0.1 133.8 611.9 524.5" enable-background="new 0.1 133.8 611.9 524.5" xml:space="preserve">
<path opacity="0.54" enable-background="new    " d="M583,192.1H29.2c-16,0-29.1-13.1-29.1-29.1s13.1-29.2,29.1-29.2h553.7
	c16,0,29.1,13.1,29.1,29.1S599,192.1,583,192.1z M58.4,250.4h437.1c16,0,29.1,13.1,29.1,29.1s-13.1,29.1-29.1,29.1H58.4
	c-16,0-29.1-13.1-29.1-29.1C29.2,263.5,42.4,250.4,58.4,250.4z M233.2,367h320.6c16,0,29.1,13.1,29.1,29.1s-13.1,29.1-29.1,29.1
	H233.2c-16,0-29.1-13.1-29.1-29.1S217.2,367,233.2,367z M262.4,600.1h87.4c16,0,29.1,13.1,29.1,29.1s-13.1,29.1-29.1,29.1h-87.4
	c-16,0-29.1-13.1-29.1-29.1C233.2,613.2,246.4,600.1,262.4,600.1z M276.9,512.7c0-16,13.1-29.1,29.1-29.1h204
	c16,0,29.1,13.1,29.1,29.1s-13.1,29.1-29.1,29.1h-204C290,541.8,276.9,528.7,276.9,512.7z"/>
</svg>
