<?xml version="1.0" encoding="utf-8"?>
<!-- Generator: Adobe Illustrator 18.0.0, SVG Export Plug-In . SVG Version: 6.00 Build 0)  -->
<!DOCTYPE svg PUBLIC "-//W3C//DTD SVG 1.1//EN" "http://www.w3.org/Graphics/SVG/1.1/DTD/svg11.dtd">
<svg version="1.1" id="Layer_1" xmlns="http://www.w3.org/2000/svg" xmlns:xlink="http://www.w3.org/1999/xlink" x="0px" y="0px"
	 viewBox="36 36 28 28" enable-background="new 36 36 28 28" xml:space="preserve">
<g opacity="0.54">
	<g>
		<path d="M36,50c0,7.7,6.3,14,14,14c7.7,0,14-6.3,14-14c0-7.7-6.3-14-14-14C42.3,36,36,42.3,36,50z M60,50c0,5.5-4.5,10-10,10
			c-5.5,0-10-4.5-10-10c0-5.5,4.5-10,10-10C55.5,40,60,44.5,60,50z M50,54c2.2,0,4-1.8,4-4s-1.8-4-4-4s-8,4-8,4S47.8,54,50,54z
			 M50,49c0.6,0,1,0.4,1,1c0,0.6-0.4,1-1,1c-0.6,0-1-0.4-1-1C49,49.4,49.4,49,50,49z"/>
	</g>
</g>
</svg>
