<?xml version="1.0" encoding="utf-8"?>
<!-- Generator: Adobe Illustrator 18.0.0, SVG Export Plug-In . SVG Version: 6.00 Build 0)  -->
<!DOCTYPE svg PUBLIC "-//W3C//DTD SVG 1.1//EN" "http://www.w3.org/Graphics/SVG/1.1/DTD/svg11.dtd">
<svg version="1.1" id="Layer_1" xmlns="http://www.w3.org/2000/svg" xmlns:xlink="http://www.w3.org/1999/xlink" x="0px" y="0px"
	 viewBox="28 36 44 28" enable-background="new 28 36 44 28" xml:space="preserve">
<path opacity="0.54" d="M66,52L66,52h-3c-1.1,0-2-0.9-2-2s0.9-2,2-2h3c1.1,0,2-0.9,2-2c0-1.1-0.9-2-2-2c-1.1,0-2-0.9-2-2s0.9-2,2-2
	c0.1,0,0.3,0,0.4,0c3.1,0.2,5.6,2.8,5.6,6C72,49.3,69.3,52,66,52z M56,48h-2h-7H34c-1.1,0-2,0.9-2,2s0.9,2,2,2h2h4h3h4h3h4h2
	c3.3,0,6,2.7,6,6c0,3.2-2.5,5.7-5.6,6c-0.1,0-0.3,0-0.4,0c-1.1,0-2-0.9-2-2c0-1.1,0.9-2,2-2c1.1,0,2-0.9,2-2s-0.9-2-2-2h-2h-4h-3h-4
	h-3h-4h-2c-3.3,0-6-2.7-6-6c0-3.2,2.5-5.7,5.6-6c0.1,0,0.3,0,0.4,0l0,0h13h7h2c1.1,0,2-0.9,2-2s-0.9-2-2-2c-1.1,0-2-0.9-2-2
	c0-1.1,0.9-2,2-2c0.1,0,0.3,0,0.4,0c3.1,0.2,5.6,2.8,5.6,6C62,45.3,59.3,48,56,48z"/>
</svg>
